<svg width="7" height="10" viewBox="0 0 7 10" fill="none" xmlns="http://www.w3.org/2000/svg">
<path fill-rule="evenodd" clip-rule="evenodd" d="M2.57866 4.25002C1.65532 4.25002 0.908366 3.50221 0.908366 2.57965C0.908366 1.65757 1.65532 0.909114 2.57866 0.909114C3.50167 0.909114 4.24927 1.65757 4.24927 2.57965C4.24927 3.50221 3.50167 4.25002 2.57866 4.25002ZM3.48394 0C1.54227 0 0 1.63678 0 3.65569C0 6.40791 2.95078 9.25191 2.95078 9.25191C3.34777 9.62783 3.59437 9.65847 4.01646 9.25191C4.01646 9.25191 7 6.40791 7 3.65569C7 1.63678 5.42544 0 3.48394 0Z" fill="#F55A5A"/>
</svg>
